<svg fill="none" height="24" viewBox="0 0 24 24" width="24" xmlns="http://www.w3.org/2000/svg"><g stroke="#1c274c" stroke-linecap="round" stroke-width="1.5"><path d="m13.9999 22c3.7712 0 5.6568 0 6.8284-1.2119 1.1716-1.2118 1.1716-3.1623 1.1716-7.0631v-1.5211c0-2.28841 0-3.43262-.5192-4.38116-.5192-.94853-1.4678-1.53723-3.3649-2.71462l-2-1.24125c-2.0053-1.24458-3.008-1.86687-4.1159-1.86687-1.108 0-2.11065.62229-4.116 1.86687l-2 1.24126c-1.89709 1.17738-2.84563 1.76608-3.36483 2.71461-.31758.58019-.4409 1.23358-.4888 2.17726"/><path d="m11 22c0-4.9706-4.02944-9-9-9"/><path d="m8 22c0-3.3137-2.68629-6-6-6"/><path d="m5 22c0-1.6569-1.34315-3-3-3"/></g></svg>